<svg xmlns="http://www.w3.org/2000/svg" viewBox="0 0 64 64" width="64" height="64" role="img" aria-labelledby="t"><title id="t">Achievement: a medal on a ribbon</title><circle cx="32" cy="32" r="30" fill="#e0b44c" stroke="#1c2a3a" stroke-width="2"></circle><circle cx="32" cy="32" r="25" fill="#1f4f8f" stroke="#1c2a3a" stroke-width="1.8"></circle><path d="M49.0 32.0 L57.0 32.0" fill="none" stroke="#1c2a3a" stroke-width="1.1" stroke-linecap="round" stroke-linejoin="round"></path><path d="M44.0 44.0 L49.7 49.7" fill="none" stroke="#1c2a3a" stroke-width="1.1" stroke-linecap="round" stroke-linejoin="round"></path><path d="M32.0 49.0 L32.0 57.0" fill="none" stroke="#1c2a3a" stroke-width="1.1" stroke-linecap="round" stroke-linejoin="round"></path><path d="M20.0 44.0 L14.3 49.7" fill="none" stroke="#1c2a3a" stroke-width="1.1" stroke-linecap="round" stroke-linejoin="round"></path><path d="M15.0 32.0 L7.0 32.0" fill="none" stroke="#1c2a3a" stroke-width="1.1" stroke-linecap="round" stroke-linejoin="round"></path><path d="M20.0 20.0 L14.3 14.3" fill="none" stroke="#1c2a3a" stroke-width="1.1" stroke-linecap="round" stroke-linejoin="round"></path><path d="M32.0 15.0 L32.0 7.0" fill="none" stroke="#1c2a3a" stroke-width="1.1" stroke-linecap="round" stroke-linejoin="round"></path><path d="M44.0 20.0 L49.7 14.3" fill="none" stroke="#1c2a3a" stroke-width="1.1" stroke-linecap="round" stroke-linejoin="round"></path><circle cx="32" cy="32" r="17" fill="#2f5d9a" stroke="#1c2a3a" stroke-width="1.1"></circle><path d="M7.5 26 A25 25 0 0 1 26 7.5" fill="none" stroke="#f4dc94" stroke-width="1.6" stroke-linecap="round" stroke-linejoin="round"></path><path d="M24 12 L32 30 L40 12 L35 12 L32 20 L29 12 Z" fill="#b83220" stroke="#1c2a3a" stroke-width="1.6" stroke-linejoin="round" stroke-linecap="round"></path><circle cx="32" cy="38" r="12" fill="#e0b44c" stroke="#1c2a3a" stroke-width="1.8"></circle><path d="M32 30 L34.5 35.5 L40 38 L34.5 40.5 L32 46 L29.5 40.5 L24 38 L29.5 35.5 Z" fill="#f4dc94" stroke="#1c2a3a" stroke-width="1.3" stroke-linejoin="round" stroke-linecap="round"></path></svg>