<svg xmlns="http://www.w3.org/2000/svg" viewBox="0 0 64 64" width="64" height="64" role="img" aria-labelledby="t"><title id="t">Insight: Uriel's flame</title><circle cx="32" cy="32" r="30" fill="#e0b44c" stroke="#1c2a3a" stroke-width="2"></circle><circle cx="32" cy="32" r="25" fill="#1f4f8f" stroke="#1c2a3a" stroke-width="1.8"></circle><path d="M49.0 32.0 L57.0 32.0" fill="none" stroke="#1c2a3a" stroke-width="1.1" stroke-linecap="round" stroke-linejoin="round"></path><path d="M44.0 44.0 L49.7 49.7" fill="none" stroke="#1c2a3a" stroke-width="1.1" stroke-linecap="round" stroke-linejoin="round"></path><path d="M32.0 49.0 L32.0 57.0" fill="none" stroke="#1c2a3a" stroke-width="1.1" stroke-linecap="round" stroke-linejoin="round"></path><path d="M20.0 44.0 L14.3 49.7" fill="none" stroke="#1c2a3a" stroke-width="1.1" stroke-linecap="round" stroke-linejoin="round"></path><path d="M15.0 32.0 L7.0 32.0" fill="none" stroke="#1c2a3a" stroke-width="1.1" stroke-linecap="round" stroke-linejoin="round"></path><path d="M20.0 20.0 L14.3 14.3" fill="none" stroke="#1c2a3a" stroke-width="1.1" stroke-linecap="round" stroke-linejoin="round"></path><path d="M32.0 15.0 L32.0 7.0" fill="none" stroke="#1c2a3a" stroke-width="1.1" stroke-linecap="round" stroke-linejoin="round"></path><path d="M44.0 20.0 L49.7 14.3" fill="none" stroke="#1c2a3a" stroke-width="1.1" stroke-linecap="round" stroke-linejoin="round"></path><circle cx="32" cy="32" r="17" fill="#2f5d9a" stroke="#1c2a3a" stroke-width="1.1"></circle><path d="M7.5 26 A25 25 0 0 1 26 7.5" fill="none" stroke="#f4dc94" stroke-width="1.6" stroke-linecap="round" stroke-linejoin="round"></path><path d="M32 12 C24 22 20 30 22 38 C24 46 28 50 32 50 C36 50 40 46 42 38 C44 30 40 22 32 12 Z" fill="#e07b2e" stroke="#1c2a3a" stroke-width="1.8" stroke-linejoin="round" stroke-linecap="round"></path><path d="M32 26 C28 32 27 37 28 42 C29 46 31 48 32 48 C33 48 35 46 36 42 C37 37 36 32 32 26 Z" fill="#f4dc94" stroke="#1c2a3a" stroke-width="1.4" stroke-linejoin="round" stroke-linecap="round"></path><path d="M32 48 V36" fill="none" stroke="#1c2a3a" stroke-width="1.1" stroke-linecap="round" stroke-linejoin="round"></path></svg>